<svg id="Layer_1" data-name="Layer 1" xmlns="http://www.w3.org/2000/svg" xmlns:xlink="http://www.w3.org/1999/xlink" viewBox="0 0 80.52 192.87"><defs><style>.cls-1{fill:url(#linear-gradient);}.cls-2{fill:url(#linear-gradient-2);}.cls-3{fill:url(#linear-gradient-3);}.cls-4{fill:url(#linear-gradient-4);}.cls-5{fill:url(#linear-gradient-5);}.cls-6{fill:url(#linear-gradient-6);}.cls-7{fill:none;}</style><linearGradient id="linear-gradient" x1="17.17" y1="13.42" x2="66.74" y2="13.42" gradientUnits="userSpaceOnUse"><stop offset="0" stop-color="#3d4599"/><stop offset="1" stop-color="#35addd"/></linearGradient><linearGradient id="linear-gradient-2" x1="17.21" y1="39.14" x2="66.77" y2="39.14" xlink:href="#linear-gradient"/><linearGradient id="linear-gradient-3" x1="10.27" y1="114.08" x2="24.34" y2="89.71" xlink:href="#linear-gradient"/><linearGradient id="linear-gradient-4" x1="33.3" y1="110.53" x2="44.02" y2="91.97" xlink:href="#linear-gradient"/><linearGradient id="linear-gradient-5" x1="53.26" y1="109.65" x2="65" y2="89.31" xlink:href="#linear-gradient"/><linearGradient id="linear-gradient-6" x1="69.71" y1="107.7" x2="80.16" y2="89.6" xlink:href="#linear-gradient"/></defs><title>ANKR LOGO</title><text x="-2.12" y="83.5"></text><path class="cls-1" d="M42,7.83a7.9,7.9,0,0,1,2.9,1.32c1.79,1.08,4.56,2.84,6.6,4L61,18.72a1,1,0,0,1,.58,1c0,1.46,0,2.92,0,4.37a4.51,4.51,0,0,0,0,.52A.39.39,0,0,0,62,25a2.54,2.54,0,0,0,.39,0h3.84c.4,0,.53-.14.55-.56V16.77a1,1,0,0,0-.63-1.11Q61,12.77,56,9.83L43,2.27a1.63,1.63,0,0,0-2.21,0L18,15.56c-.87.5-.87.53-.87,1.54v7.45a.45.45,0,0,0,.44.45h0A2.54,2.54,0,0,0,18,25h3.45c.73,0,.82-.07.81-.82v-4.7a.79.79,0,0,1,.33-.61,4,4,0,0,1,.44-.27l15.49-9c.13-.08.26-.16.4-.23S41.28,7.83,42,7.83Z" transform="translate(-2.12 83.5)"/><path class="cls-2" d="M66.76,44.6V37c0-.42-.15-.54-.55-.56H62a.42.42,0,0,0-.37.37v4.89a1,1,0,0,1-.57,1L51.48,48.2l-6.14,3.55a6.19,6.19,0,0,1-.57.3.14.14,0,0,1-.2-.09,2.56,2.56,0,0,1,0-.39V42.82c0-.56.05-.61.59-.78l.19,0a11.86,11.86,0,0,0-5.14-23.1A11.27,11.27,0,0,0,34.3,21.6a11.62,11.62,0,0,0-3.8,11.94,11.17,11.17,0,0,0,4.73,6.86A13.38,13.38,0,0,0,38.51,42c.94.3.88.45.88,1.25v4.07h0v4.5c0,.33-.12.37-.41.23l-.4-.22-15.47-9a4.12,4.12,0,0,1-.45-.27.79.79,0,0,1-.33-.61v-4.7c0-.74-.07-.82-.81-.82H18.07a2.54,2.54,0,0,0-.39,0,.45.45,0,0,0-.46.43v0c0,.28,0,.56,0,.84v6.6c0,1,0,1,.87,1.54L40.85,59.08a1.62,1.62,0,0,0,2.21,0l13-7.56q5-2.93,10.08-5.83A1,1,0,0,0,66.76,44.6ZM42,37.18a6.54,6.54,0,1,1,6.48-6.61v.09A6.53,6.53,0,0,1,42,37.18Z" transform="translate(-2.12 83.5)"/><path class="cls-3" d="M26.94,109.37H24l-2.85-6.45H7.84l-2.9,6.45H2.12L13.24,84.79h2.58ZM14.49,88,8.92,100.48H20Z" transform="translate(-2.12 83.5)"/><path class="cls-4" d="M34,109.37H31.3v-18H34v3.13A8.5,8.5,0,0,1,36.35,92a6.51,6.51,0,0,1,3.8-1,7.78,7.78,0,0,1,2.91.52A6,6,0,0,1,45.22,93a6.53,6.53,0,0,1,1.36,2.28,8.78,8.78,0,0,1,.47,2.93v11.19H44.37V98.84a5.78,5.78,0,0,0-1.29-4,4.66,4.66,0,0,0-3.7-1.47,5.82,5.82,0,0,0-2.14.4A5.09,5.09,0,0,0,35.51,95a5.35,5.35,0,0,0-1.13,1.8,6.31,6.31,0,0,0-.4,2.3Z" transform="translate(-2.12 83.5)"/><path class="cls-5" d="M68.77,109.37H65.56L59.11,101l-3.66,3.69v4.71H52.77V83.92h2.68v17.57l9.73-10.14h3.35L61,99.08Z" transform="translate(-2.12 83.5)"/><path class="cls-6" d="M75.29,109.37H72.6v-18h2.69v4.7A9.48,9.48,0,0,1,76.51,94a8.54,8.54,0,0,1,1.67-1.62,7.08,7.08,0,0,1,2.06-1,7.19,7.19,0,0,1,2.4-.32v2.89h-.21a7.38,7.38,0,0,0-2.77.53A6.26,6.26,0,0,0,77.38,96a7.52,7.52,0,0,0-1.54,2.59,10.64,10.64,0,0,0-.55,3.58Z" transform="translate(-2.12 83.5)"/><line class="cls-7" x1="-61.57" y1="238.15" x2="-61.57" y2="238.15"/></svg>