<svg id="Layer_2" data-name="Layer 2" xmlns="http://www.w3.org/2000/svg" xmlns:xlink="http://www.w3.org/1999/xlink" viewBox="0 0 31.85 22.08"><defs><style>.cls-1{opacity:0.78;}.cls-2{fill:url(#linear-gradient);}.cls-3{fill:url(#linear-gradient-2);}.cls-4{fill:url(#linear-gradient-3);}.cls-5{fill:url(#linear-gradient-4);}.cls-6{fill:url(#linear-gradient-5);}.cls-7{fill:url(#linear-gradient-6);}.cls-8{fill:url(#linear-gradient-7);}.cls-9{fill:url(#linear-gradient-8);}</style><linearGradient id="linear-gradient" x1="203.74" y1="311.37" x2="207.51" y2="311.37" gradientTransform="translate(340.94 -203.74) rotate(90)" gradientUnits="userSpaceOnUse"><stop offset="0" stop-color="#3298cb"/><stop offset="1" stop-color="#363794"/></linearGradient><linearGradient id="linear-gradient-2" x1="215.06" y1="325.01" x2="222.05" y2="325.01" xlink:href="#linear-gradient"/><linearGradient id="linear-gradient-3" x1="211.29" y1="331.84" x2="218.27" y2="331.84" xlink:href="#linear-gradient"/><linearGradient id="linear-gradient-4" x1="207.51" y1="336.39" x2="214.5" y2="336.39" xlink:href="#linear-gradient"/><linearGradient id="linear-gradient-5" x1="203.74" y1="338.66" x2="207.51" y2="338.66" xlink:href="#linear-gradient"/><linearGradient id="linear-gradient-6" x1="207.51" y1="313.64" x2="214.5" y2="313.64" xlink:href="#linear-gradient"/><linearGradient id="linear-gradient-7" x1="211.29" y1="318.19" x2="218.27" y2="318.19" xlink:href="#linear-gradient"/><linearGradient id="linear-gradient-8" x1="222.05" y1="325.01" x2="225.82" y2="325.01" xlink:href="#linear-gradient"/></defs><title>ARROW</title><g class="cls-1"><rect class="cls-2" x="27.3" width="4.55" height="3.77"/><polygon class="cls-3" points="18.2 15.09 18.2 18.3 22.75 18.3 22.75 14.53 18.2 14.53 18.2 11.32 13.65 11.32 13.65 14.53 9.1 14.53 9.1 18.3 13.65 18.3 13.65 15.09 18.2 15.09"/><polygon class="cls-4" points="13.65 11.32 13.65 7.54 9.1 7.54 9.1 10.76 4.55 10.76 4.55 14.53 9.1 14.53 9.1 11.32 13.65 11.32"/><polygon class="cls-5" points="9.1 7.54 9.1 3.77 4.55 3.77 4.55 6.99 0 6.99 0 10.76 4.55 10.76 4.55 7.54 9.1 7.54"/><rect class="cls-6" width="4.55" height="3.77"/><polygon class="cls-7" points="27.3 10.76 31.85 10.76 31.85 6.99 27.3 6.99 27.3 3.77 22.75 3.77 22.75 7.54 27.3 7.54 27.3 10.76"/><polygon class="cls-8" points="22.75 14.53 27.3 14.53 27.3 10.76 22.75 10.76 22.75 7.54 18.2 7.54 18.2 11.32 22.75 11.32 22.75 14.53"/><rect class="cls-9" x="13.65" y="18.3" width="4.55" height="3.77"/></g></svg>