<?xml version="1.0" encoding="utf-8"?>
<!-- Generator: Adobe Illustrator 23.0.1, SVG Export Plug-In . SVG Version: 6.00 Build 0)  -->
<svg version="1.1" id="Layer_1" xmlns="http://www.w3.org/2000/svg" xmlns:xlink="http://www.w3.org/1999/xlink" x="0px" y="0px"
	 viewBox="0 0 110 110" style="enable-background:new 0 0 110 110;" xml:space="preserve">
<style type="text/css">
	.st0{fill:none;stroke:#BAD9F2;stroke-miterlimit:10;}
	.st1{fill:#BAD9F2;}
	.st2{fill:url(#SVGID_1_);}
	.st3{fill:url(#SVGID_2_);}
	.st4{fill:#CAE2F6;}
	.st5{fill:url(#SVGID_3_);}
	.st6{fill:#AECCE3;}
	.st7{fill:#ECF5FD;}
	.st8{fill:url(#SVGID_4_);}
	.st9{fill:url(#SVGID_5_);}
</style>
<path class="st0" d="M35.5,63.8"/>
<g>
	<g>
		<g>
			<path class="st1" d="M55.1,54.6l-40,27l0,0l40,27l40-27l0,0L55.1,54.6z"/>
			
				<linearGradient id="SVGID_1_" gradientUnits="userSpaceOnUse" x1="15.1" y1="43.07" x2="95.1" y2="43.07" gradientTransform="matrix(1 0 0 -1 0 110.72)">
				<stop  offset="0" style="stop-color:#3D4599"/>
				<stop  offset="1" style="stop-color:#35ADDD"/>
			</linearGradient>
			<polygon class="st2" points="95.1,64.9 55.1,37.9 15.1,64.9 15.1,64.9 15.1,70.4 15.1,70.5 55.1,97.4 95.1,70.5 95.1,70.4 			"/>
			
				<linearGradient id="SVGID_2_" gradientUnits="userSpaceOnUse" x1="94.5026" y1="45.82" x2="14.3628" y2="45.82" gradientTransform="matrix(1 0 0 -1 0 110.72)">
				<stop  offset="0" style="stop-color:#2A8BCB"/>
				<stop  offset="1" style="stop-color:#35ADDD"/>
			</linearGradient>
			<path class="st3" d="M55.1,37.9l-40,27l0,0l40,27l40-27l0,0L55.1,37.9z"/>
		</g>
		<path class="st4" d="M55.1,43.3l-32,21.6l0,0l32,21.6l32-21.6l0,0L55.1,43.3z"/>
		<polygon class="st1" points="55.1,1.5 23.1,22.5 23.1,65 55.1,86.5 87.1,65 87.1,22.5 		"/>
		<path class="st4" d="M55.1,1.5l-32,21V65l32,21.5V1.5z"/>
		<path class="st1" d="M55.1,86.5l32-21.5V22.5l-32-21V86.5z"/>
		
			<linearGradient id="SVGID_3_" gradientUnits="userSpaceOnUse" x1="23.1" y1="87.92" x2="87.1" y2="87.92" gradientTransform="matrix(1 0 0 -1 0 110.72)">
			<stop  offset="0" style="stop-color:#DFEFFB"/>
			<stop  offset="1" style="stop-color:#FFFFFF"/>
		</linearGradient>
		<path class="st5" d="M55.1,1.5l-32,21l0,0l32,21.6l32-21.6l0,0L55.1,1.5z"/>
		<g>
			<g>
				<path class="st6" d="M51,74.6c-1.1,0-2,1.1-2,2.5s0.9,2.5,2,2.5s2-1.1,2-2.5C53,75.8,52.1,74.6,51,74.6z M51,50.6
					c1.1,0,2-1.1,2-2.5s-0.9-2.5-2-2.5s-2,1.1-2,2.5S49.9,50.6,51,50.6z M28,59.6c-1.1,0-2,1.1-2,2.5s0.9,2.5,2,2.5s2-1.1,2-2.5
					C30,60.8,29.1,59.6,28,59.6z M28,30.6c-1.1,0-2,1.1-2,2.5c0,1.4,0.9,2.5,2,2.5s2-1.1,2-2.5C30,31.8,29.1,30.6,28,30.6z"/>
			</g>
		</g>
		<g>
			<g>
				<path class="st7" d="M50.6,75.1c-1.1,0-2,1.1-2,2.5s0.9,2.5,2,2.5s2-1.1,2-2.5S51.7,75.1,50.6,75.1z M50.6,51.1
					c1.1,0,2-1.1,2-2.5s-0.9-2.5-2-2.5s-2,1.1-2,2.5S49.4,51.1,50.6,51.1z M27.6,60.1c-1.1,0-2,1.1-2,2.5s0.9,2.5,2,2.5s2-1.1,2-2.5
					S28.7,60.1,27.6,60.1z M27.6,31.1c-1.1,0-2,1.1-2,2.5s0.9,2.5,2,2.5s2-1.1,2-2.5S28.7,31.1,27.6,31.1z"/>
			</g>
		</g>
		<g>
			<g>
				
					<linearGradient id="SVGID_4_" gradientUnits="userSpaceOnUse" x1="64.6208" y1="56.07" x2="80.6208" y2="56.07" gradientTransform="matrix(1 0 0 -1 0 110.72)">
					<stop  offset="0" style="stop-color:#3D4599"/>
					<stop  offset="1" style="stop-color:#35ADDD"/>
				</linearGradient>
				<path class="st8" d="M64.6,49.3v0.9l16-10.1v-0.9L64.6,49.3z M64.6,54.1l16-10.1v-0.9l-16,10.1V54.1z M64.6,58.1l16-10.1v-0.9
					l-16,10.1V58.1z M64.6,62.1l16-10.1v-0.9l-16,10.1V62.1z M64.6,66.1l16-10.1v-0.9l-16,10.1V66.1z M64.6,70.1l16-10.1v-0.9
					l-16,10.1V70.1z"/>
			</g>
		</g>
	</g>
	<g>
		<polygon class="st1" points="76.1,18.9 55.1,4.8 34.1,18.9 34.1,18.9 34.1,22.9 34.1,22.9 55.1,37.1 76.1,22.9 76.1,22.9 		"/>
		
			<linearGradient id="SVGID_5_" gradientUnits="userSpaceOnUse" x1="34.0503" y1="91.72" x2="76.0503" y2="91.72" gradientTransform="matrix(1 0 0 -1 0 110.72)">
			<stop  offset="0" style="stop-color:#DFEFFB"/>
			<stop  offset="1" style="stop-color:#FFFFFF"/>
		</linearGradient>
		<path class="st9" d="M55.1,4.8L34.1,19l0,0l21,14.2l21-14.2l0,0L55.1,4.8z"/>
	</g>
</g>
</svg>
