<svg id="Layer_1" data-name="Layer 1" xmlns="http://www.w3.org/2000/svg" xmlns:xlink="http://www.w3.org/1999/xlink" viewBox="0 0 89.83 1.02"><defs><style>.cls-1{opacity:0.42;}.cls-2{fill:url(#linear-gradient);}</style><linearGradient id="linear-gradient" x1="9.35" y1="55.36" x2="100.17" y2="55.36" gradientUnits="userSpaceOnUse"><stop offset="0" stop-color="#3d4599"/><stop offset="1" stop-color="#35addd"/></linearGradient></defs><title>LINE</title><g class="cls-1"><path class="cls-2" d="M9.85,55.36l1.5-.08a.09.09,0,0,1,.08.08.08.08,0,0,1-.08.08h0Z" transform="translate(-9.85 -54.85)"/><path class="cls-2" d="M14.34,55.14l3-.12a.35.35,0,0,1,.37.33.35.35,0,0,1-.34.36h0l-3-.13a.22.22,0,0,1-.21-.23A.23.23,0,0,1,14.34,55.14Z" transform="translate(-9.85 -54.85)"/><path class="cls-2" d="M20.33,54.89c1-.06,2,0,3,0a.5.5,0,0,1,.5.5.5.5,0,0,1-.5.5c-1,0-2,0-3,0a.49.49,0,0,1-.45-.51A.47.47,0,0,1,20.33,54.89Z" transform="translate(-9.85 -54.85)"/><path class="cls-2" d="M26.32,54.86h3a.5.5,0,0,1,.5.5.5.5,0,0,1-.5.5h-3a.5.5,0,0,1-.5-.5A.5.5,0,0,1,26.32,54.86Z" transform="translate(-9.85 -54.85)"/><path class="cls-2" d="M32.3,54.86h3a.51.51,0,0,1,.5.5.5.5,0,0,1-.5.5h-3a.5.5,0,0,1-.5-.5A.51.51,0,0,1,32.3,54.86Z" transform="translate(-9.85 -54.85)"/><path class="cls-2" d="M38.29,54.86h3a.51.51,0,0,1,.5.5.5.5,0,0,1-.5.5h-3a.5.5,0,0,1-.5-.5A.51.51,0,0,1,38.29,54.86Z" transform="translate(-9.85 -54.85)"/><path class="cls-2" d="M44.28,54.86h3a.5.5,0,0,1,.5.5.5.5,0,0,1-.5.5h-3a.5.5,0,0,1-.5-.5A.5.5,0,0,1,44.28,54.86Z" transform="translate(-9.85 -54.85)"/><path class="cls-2" d="M50.27,54.86h3a.5.5,0,0,1,.5.5.5.5,0,0,1-.5.5h-3a.5.5,0,0,1-.5-.5A.5.5,0,0,1,50.27,54.86Z" transform="translate(-9.85 -54.85)"/><path class="cls-2" d="M56.26,54.86h3a.5.5,0,0,1,.5.5.5.5,0,0,1-.5.5h-3a.5.5,0,0,1-.5-.5A.5.5,0,0,1,56.26,54.86Z" transform="translate(-9.85 -54.85)"/><path class="cls-2" d="M62.24,54.86h3a.51.51,0,0,1,.5.5.5.5,0,0,1-.5.5h-3a.5.5,0,0,1-.5-.5A.51.51,0,0,1,62.24,54.86Z" transform="translate(-9.85 -54.85)"/><path class="cls-2" d="M68.23,54.86h3a.51.51,0,0,1,.5.5.5.5,0,0,1-.5.5h-3a.5.5,0,0,1-.5-.5A.51.51,0,0,1,68.23,54.86Z" transform="translate(-9.85 -54.85)"/><path class="cls-2" d="M74.22,54.86h3a.5.5,0,0,1,.5.5.5.5,0,0,1-.5.5h-3a.5.5,0,0,1-.5-.5A.5.5,0,0,1,74.22,54.86Z" transform="translate(-9.85 -54.85)"/><path class="cls-2" d="M80.21,54.86h3a.5.5,0,0,1,.5.5.5.5,0,0,1-.5.5h-3a.5.5,0,0,1-.5-.5A.5.5,0,0,1,80.21,54.86Z" transform="translate(-9.85 -54.85)"/><path class="cls-2" d="M86.2,54.86c1,0,2,0,3,0a.47.47,0,0,1,0,.94c-1,.07-2,0-3,0a.5.5,0,1,1,0-1Z" transform="translate(-9.85 -54.85)"/><path class="cls-2" d="M92.18,55l3,.13a.2.2,0,0,1,.2.22.22.22,0,0,1-.2.21l-3,.12a.33.33,0,0,1-.35-.32.34.34,0,0,1,.32-.36Z" transform="translate(-9.85 -54.85)"/><path class="cls-2" d="M98.17,55.29l1.5.07-1.5.08a.08.08,0,0,1-.08-.07.07.07,0,0,1,.07-.08Z" transform="translate(-9.85 -54.85)"/></g></svg>