<svg id="Layer_4" data-name="Layer 4" xmlns="http://www.w3.org/2000/svg" xmlns:xlink="http://www.w3.org/1999/xlink" viewBox="0 0 23.22 23.22"><defs><style>.cls-1{fill:#fff;}.cls-2{fill:url(#linear-gradient);}.cls-3{fill:url(#linear-gradient-2);}.cls-4{fill:url(#linear-gradient-3);}</style><linearGradient id="linear-gradient" y1="11.61" x2="7.44" y2="11.61" gradientUnits="userSpaceOnUse"><stop offset="0" stop-color="#3d4599"/><stop offset="1" stop-color="#35addd"/></linearGradient><linearGradient id="linear-gradient-2" x1="15.78" y1="11.61" x2="23.22" y2="11.61" xlink:href="#linear-gradient"/><linearGradient id="linear-gradient-3" x1="7.89" y1="11.61" x2="15.34" y2="11.61" xlink:href="#linear-gradient"/></defs><title>Marketplace(color)</title><polygon class="cls-1" points="7.44 23.22 0 21.4 0 0 7.44 1.82 7.44 23.22"/><polygon class="cls-1" points="23.22 23.22 15.77 21.4 15.77 0 23.22 1.82 23.22 23.22"/><polygon class="cls-1" points="15.33 21.4 7.89 23.22 7.89 1.82 15.33 0 15.33 21.4"/><polygon class="cls-2" points="7.44 23.22 0 21.4 0 0 7.44 1.82 7.44 23.22"/><polyline class="cls-3" points="15.78 3.9 15.78 0 23.22 1.82 23.22 23.22 15.78 21.4 15.78 3.9"/><polygon class="cls-4" points="15.34 21.4 7.89 23.22 7.89 1.82 15.34 0 15.34 21.4"/><path class="cls-1" d="M16.37,12.35l-.75.64c-.6-.41-.71-1.54-1.59-1.22a11.84,11.84,0,0,1,1.24,2,3.59,3.59,0,0,1,.18,2,32.29,32.29,0,0,1-1.27,3.48c-1-.7-1.11-1.79-1.25-2.86a3.74,3.74,0,0,1-.09-.66,1,1,0,0,0-.9-1.13c-.58-.12-.59-.45-.55-1a4.62,4.62,0,0,1,1.82-3.32,3,3,0,0,0,.51-.8l-.18-.14-1.21,1c-.52-1.8.51-2.71,2.08-3.19a7.69,7.69,0,0,1,2-.35" transform="translate(-1.03 -1.28)"/><path class="cls-1" d="M16.81,6.83a19,19,0,0,1,4.42.58c-1.33.65-1.43,1.66-.92,2.87a.52.52,0,0,1-.08.4c-.44.73-.9,1.45-1.37,2.19l-.86-1c-.17.35-.3.66-.48,1.09-.19-.42-.33-.74-.51-1.11l-.2.17" transform="translate(-1.03 -1.28)"/><path class="cls-1" d="M8.47,17.83c-.07.41-.12.83-.18,1.24a1.15,1.15,0,0,1-.12.25c-.57-.23-1.08-.46-1.07-1.26,0-.4-.16-.79-.19-1.19a2.55,2.55,0,0,0-.76-1.79A.75.75,0,0,1,6,14a.78.78,0,0,0-.14-1.12A4.08,4.08,0,0,1,4.41,10c0-.79-.43-1.1-1.14-.94,0-.6.62-1.7,1.09-1.77C5.6,7.11,6.85,7,8.28,6.77L7.81,8l.66.83" transform="translate(-1.03 -1.28)"/><path class="cls-1" d="M8.89,13.59a2,2,0,0,1,.38.38c.35.46.52.83.17,1.3a4.83,4.83,0,0,0-.53.94" transform="translate(-1.03 -1.28)"/><path class="cls-1" d="M20.69,15.26a3.07,3.07,0,0,1,0,3.47c-.65-.52-1.15-1.52-2.21-1.1-.26-1.14-.24-1.18.63-1.62l1.48-.74Z" transform="translate(-1.03 -1.28)"/><path class="cls-1" d="M11.12,6.56c.21,1.29.2,1.31-1.34,2.15-.42-.52-.71-1.15-.16-1.64A3.86,3.86,0,0,1,11.12,6.56Z" transform="translate(-1.03 -1.28)"/></svg>