<svg id="Layer_2" data-name="Layer 2" xmlns="http://www.w3.org/2000/svg" xmlns:xlink="http://www.w3.org/1999/xlink" viewBox="0 0 23.96 23.96"><defs><style>.cls-1{fill:url(#linear-gradient);}.cls-2{fill:url(#linear-gradient-2);}.cls-3{fill:url(#linear-gradient-3);}.cls-4{fill:url(#linear-gradient-4);}.cls-5{fill:url(#linear-gradient-5);}.cls-6{fill:url(#linear-gradient-6);}.cls-7{fill:url(#linear-gradient-7);}.cls-8{fill:url(#linear-gradient-8);}.cls-9{fill:url(#linear-gradient-9);}</style><linearGradient id="linear-gradient" y1="3.27" x2="6.55" y2="3.27" gradientUnits="userSpaceOnUse"><stop offset="0" stop-color="#3d4599"/><stop offset="1" stop-color="#35addd"/></linearGradient><linearGradient id="linear-gradient-2" x1="8.73" y1="3.27" x2="15.27" y2="3.27" xlink:href="#linear-gradient"/><linearGradient id="linear-gradient-3" x1="17.42" y1="3.27" x2="23.96" y2="3.27" xlink:href="#linear-gradient"/><linearGradient id="linear-gradient-4" y1="12" x2="6.55" y2="12" xlink:href="#linear-gradient"/><linearGradient id="linear-gradient-5" x1="8.73" y1="12" x2="15.27" y2="12" xlink:href="#linear-gradient"/><linearGradient id="linear-gradient-6" x1="17.42" y1="12" x2="23.96" y2="12" xlink:href="#linear-gradient"/><linearGradient id="linear-gradient-7" y1="20.69" x2="6.55" y2="20.69" xlink:href="#linear-gradient"/><linearGradient id="linear-gradient-8" x1="8.73" y1="20.69" x2="15.27" y2="20.69" xlink:href="#linear-gradient"/><linearGradient id="linear-gradient-9" x1="17.42" y1="20.69" x2="23.96" y2="20.69" xlink:href="#linear-gradient"/></defs><title>Task(color)</title><rect class="cls-1" width="6.55" height="6.55"/><rect class="cls-2" x="8.73" width="6.55" height="6.55"/><rect class="cls-3" x="17.42" width="6.55" height="6.55"/><rect class="cls-4" y="8.73" width="6.55" height="6.55"/><rect class="cls-5" x="8.73" y="8.73" width="6.55" height="6.55"/><rect class="cls-6" x="17.42" y="8.73" width="6.55" height="6.55"/><rect class="cls-7" y="17.42" width="6.55" height="6.55"/><rect class="cls-8" x="8.73" y="17.42" width="6.55" height="6.55"/><rect class="cls-9" x="17.42" y="17.42" width="6.55" height="6.55"/></svg>