<?xml version="1.0" encoding="utf-8"?>
<!-- Generator: Adobe Illustrator 22.1.0, SVG Export Plug-In . SVG Version: 6.00 Build 0)  -->
<svg version="1.1" xmlns="http://www.w3.org/2000/svg" xmlns:xlink="http://www.w3.org/1999/xlink" x="0px" y="0px"
	 viewBox="0 0 25.4 25.4" style="enable-background:new 0 0 25.4 25.4;" xml:space="preserve">
<style type="text/css">
	.st0{display:none;}
	.st1{display:inline;fill:#2A3A85;}
	.st2{display:inline;}
	.st3{fill:url(#SVGID_1_);stroke:url(#SVGID_2_);stroke-miterlimit:10;}
	.st4{fill:url(#SVGID_3_);stroke:url(#SVGID_4_);stroke-miterlimit:10;}
	.st5{fill:url(#SVGID_5_);stroke:url(#SVGID_6_);stroke-miterlimit:10;}
	.st6{fill:url(#SVGID_7_);stroke:url(#SVGID_8_);stroke-miterlimit:10;}
	.st7{fill:#B6B6B7;}
</style>
<g id="Layer_1" class="st0">
	<path class="st1" d="M8.5-38.8c0.7,0,1.8,0.7,2.9,1.3c1.8,1.1,4.6,2.8,6.6,4c3.2,1.8,6.4,3.7,9.6,5.5c0.4,0.2,0.6,0.6,0.6,1
		c0,1.5,0,2.9,0,4.4c0,0.2,0,0.3,0,0.5c0,0.2,0.2,0.4,0.4,0.4c0.1,0,0.3,0,0.4,0h3.6c0.1,0,0.2,0,0.3,0c0.4,0,0.5-0.1,0.6-0.6
		c0-0.3,0-0.6,0-0.8c0-2.2,0-4.4,0-6.6c0-0.1,0-0.1,0-0.2c0.1-0.5-0.2-0.9-0.6-1.1c-3.4-1.9-6.7-3.9-10.1-5.8c-4.3-2.5-8.7-5-13-7.6
		c-1-0.6-1.2-0.6-2.2,0L-15.4-31c-0.9,0.5-0.9,0.5-0.9,1.5c0,2.2,0,4.4,0,6.6c0,0.3,0,0.6,0,0.8c0,0.2,0.2,0.5,0.4,0.5c0,0,0,0,0,0
		c0.1,0,0.3,0,0.4,0h3.4c0.7,0,0.8-0.1,0.8-0.8c0-1.4,0-2.8,0-4.2c0-0.2,0-0.3,0-0.5c0-0.2,0.1-0.5,0.3-0.6c0.1-0.1,0.3-0.2,0.4-0.3
		l15.5-9c0.1-0.1,0.3-0.2,0.4-0.2C5.5-37.2,7.8-38.8,8.5-38.8z"/>
	<path class="st1" d="M33.3-2c0-0.1,0-0.1,0-0.2c0-2.2,0-4.4,0-6.6c0-0.3,0-0.6,0-0.8c0-0.4-0.2-0.5-0.6-0.6c-0.1,0-0.2,0-0.3,0
		h-3.6c-0.1,0-0.3,0-0.4,0c-0.2,0-0.4,0.2-0.4,0.4c0,0.2,0,0.3,0,0.5c0,1.5,0,2.9,0,4.4c0,0.4-0.2,0.8-0.6,1
		c-3.2,1.8-6.4,3.7-9.6,5.5l-6.1,3.6c-0.2,0.1-0.4,0.2-0.6,0.3c-0.1,0-0.2,0-0.2-0.1c0-0.1,0-0.3,0-0.4c0-2.9,0-5.8,0-8.8
		c0-0.6,0-0.6,0.6-0.8l0.2-0.1c6.3-1.8,9.9-8.4,8-14.7c-1.7-5.7-7.3-9.3-13.2-8.4c-2.2,0.3-4.2,1.3-5.9,2.7c-3.5,2.9-5,7.6-3.8,11.9
		c0.6,2.8,2.3,5.3,4.7,6.9C2.8-5.5,3.9-5,5-4.6C6-4.3,5.9-4.2,5.9-3.4c0,1.3,0,2.7,0,4.1l0,0c0,1.1,0,2.2,0,3.3c0,0.4,0,0.8,0,1.2
		c0,0.3-0.1,0.4-0.4,0.2C5.4,5.4,5.2,5.3,5.1,5.2l-15.5-9c-0.2-0.1-0.3-0.2-0.4-0.3c-0.2-0.1-0.3-0.4-0.3-0.6c0-0.2,0-0.3,0-0.5
		c0-1.4,0-2.8,0-4.2c0-0.7-0.1-0.8-0.8-0.8h-3.4c-0.1,0-0.3,0-0.4,0c-0.2,0-0.5,0.2-0.5,0.4c0,0,0,0,0,0c0,0.3,0,0.6,0,0.8
		c0,2.2,0,4.4,0,6.6c0,1,0,1,0.9,1.5L7.4,12.5c1,0.6,1.2,0.6,2.2,0c4.3-2.5,8.7-5,13-7.6c3.4-2,6.7-3.9,10.1-5.8
		C33.1-1.1,33.4-1.5,33.3-2z M8.5-9.4c-3.6,0-6.6-2.9-6.6-6.5c0-3.6,2.9-6.6,6.5-6.6c3.6,0,6.6,2.9,6.6,6.5c0,0,0,0.1,0,0.1
		C15-12.4,12.1-9.4,8.5-9.4z"/>
	<g class="st2">
		<linearGradient id="SVGID_1_" gradientUnits="userSpaceOnUse" x1="-23.1916" y1="61.4805" x2="-9.125" y2="37.1164">
			<stop  offset="0" style="stop-color:#3D4599"/>
			<stop  offset="1" style="stop-color:#35ADDD"/>
		</linearGradient>
		<linearGradient id="SVGID_2_" gradientUnits="userSpaceOnUse" x1="-18.9384" y1="57.2712" x2="-18.9384" y2="31.6954">
			<stop  offset="0" style="stop-color:#3D4599"/>
			<stop  offset="1" style="stop-color:#35ADDD"/>
		</linearGradient>
		<path class="st3" d="M-6.5,56.8h-3l-2.9-6.4h-13.3l-2.9,6.4h-2.8l11.1-24.6h2.6L-6.5,56.8z M-19,35.4l-5.6,12.4h11.1L-19,35.4z"/>
		<linearGradient id="SVGID_3_" gradientUnits="userSpaceOnUse" x1="-0.1646" y1="57.9298" x2="10.5498" y2="39.372">
			<stop  offset="0" style="stop-color:#3D4599"/>
			<stop  offset="1" style="stop-color:#35ADDD"/>
		</linearGradient>
		<linearGradient id="SVGID_4_" gradientUnits="userSpaceOnUse" x1="5.707" y1="57.2712" x2="5.707" y2="37.8653">
			<stop  offset="0" style="stop-color:#3D4599"/>
			<stop  offset="1" style="stop-color:#35ADDD"/>
		</linearGradient>
		<path class="st4" d="M0.5,56.8h-2.7v-18h2.7v3.1c0.6-1,1.4-1.8,2.4-2.5c1-0.7,2.2-1,3.8-1c1.1,0,2.1,0.2,2.9,0.5
			c0.8,0.3,1.6,0.8,2.2,1.5c0.6,0.6,1,1.4,1.4,2.3c0.3,0.9,0.5,1.9,0.5,2.9v11.2h-2.7V46.2c0-1.7-0.4-3-1.3-4
			c-0.9-1-2.1-1.5-3.7-1.5c-0.8,0-1.5,0.1-2.1,0.4c-0.7,0.3-1.2,0.7-1.7,1.2c-0.5,0.5-0.9,1.1-1.1,1.8c-0.3,0.7-0.4,1.5-0.4,2.3
			V56.8z"/>
		<linearGradient id="SVGID_5_" gradientUnits="userSpaceOnUse" x1="19.7929" y1="57.0545" x2="31.536" y2="36.715">
			<stop  offset="0" style="stop-color:#3D4599"/>
			<stop  offset="1" style="stop-color:#35ADDD"/>
		</linearGradient>
		<linearGradient id="SVGID_6_" gradientUnits="userSpaceOnUse" x1="27.5562" y1="57.2712" x2="27.5562" y2="30.8239">
			<stop  offset="0" style="stop-color:#3D4599"/>
			<stop  offset="1" style="stop-color:#35ADDD"/>
		</linearGradient>
		<path class="st5" d="M35.3,56.8h-3.2l-6.4-8.4L22,52.1v4.7h-2.7V31.3H22v17.6l9.7-10.1h3.3l-7.6,7.7L35.3,56.8z"/>
		<linearGradient id="SVGID_7_" gradientUnits="userSpaceOnUse" x1="36.2412" y1="55.0996" x2="46.6909" y2="37.0003">
			<stop  offset="0" style="stop-color:#3D4599"/>
			<stop  offset="1" style="stop-color:#35ADDD"/>
		</linearGradient>
		<linearGradient id="SVGID_8_" gradientUnits="userSpaceOnUse" x1="44.1564" y1="57.2712" x2="44.1564" y2="37.9321">
			<stop  offset="0" style="stop-color:#3D4599"/>
			<stop  offset="1" style="stop-color:#35ADDD"/>
		</linearGradient>
		<path class="st6" d="M41.8,56.8h-2.7v-18h2.7v4.7c0.3-0.7,0.7-1.4,1.2-2.1c0.5-0.6,1-1.2,1.7-1.6c0.6-0.5,1.3-0.8,2.1-1
			c0.7-0.2,1.5-0.3,2.4-0.3v2.9H49c-1,0-1.9,0.2-2.8,0.5s-1.6,0.9-2.3,1.6c-0.7,0.7-1.2,1.6-1.5,2.6c-0.4,1-0.6,2.2-0.6,3.6V56.8z"
			/>
	</g>
</g>
<g id="Layer_2">
	<g>
		<rect x="0.7" y="0.8" class="st7" width="6.5" height="6.5"/>
		<rect x="9.5" y="0.8" class="st7" width="6.5" height="6.5"/>
		<rect x="18.1" y="0.8" class="st7" width="6.5" height="6.5"/>
		<rect x="0.7" y="9.5" class="st7" width="6.5" height="6.5"/>
		<rect x="9.5" y="9.5" class="st7" width="6.5" height="6.5"/>
		<rect x="18.1" y="9.5" class="st7" width="6.5" height="6.5"/>
		<rect x="0.7" y="18.2" class="st7" width="6.5" height="6.5"/>
		<rect x="9.5" y="18.2" class="st7" width="6.5" height="6.5"/>
		<rect x="18.1" y="18.2" class="st7" width="6.5" height="6.5"/>
	</g>
</g>
</svg>
